<?xml version="1.0" standalone="no"?>
<!DOCTYPE svg PUBLIC "-//W3C//DTD SVG 20010904//EN"
 "http://www.w3.org/TR/2001/REC-SVG-20010904/DTD/svg10.dtd">
<svg version="1.0" xmlns="http://www.w3.org/2000/svg"
 width="700.000000pt" height="700.000000pt" viewBox="0 0 700.000000 700.000000"
 preserveAspectRatio="xMidYMid meet">
<metadata>
Created by potrace 1.14, written by Peter Selinger 2001-2017
</metadata>
<g transform="translate(0.000000,700.000000) scale(0.100000,-0.100000)"
fill="#000000" stroke="none">
<path d="M4568 6996 c-1 -2 -39 -6 -83 -10 -241 -18 -645 -118 -860 -211 -16
-7 -53 -22 -81 -34 -88 -35 -315 -146 -404 -196 -47 -26 -98 -55 -115 -63
-139 -72 -628 -412 -727 -504 -7 -7 -40 -35 -73 -63 -228 -188 -501 -452 -744
-720 -251 -276 -501 -612 -713 -955 -123 -200 -150 -249 -258 -464 -294 -581
-445 -1068 -496 -1596 -9 -95 -11 -428 -3 -480 4 -25 10 -67 13 -95 6 -40 21
-113 51 -235 10 -41 31 -101 54 -157 98 -239 208 -404 378 -570 154 -149 320
-262 551 -374 113 -55 346 -141 415 -153 16 -3 43 -9 60 -15 18 -5 49 -12 71
-16 21 -3 41 -7 45 -9 3 -2 26 -7 51 -10 54 -7 98 -15 125 -21 11 -2 49 -7 85
-10 36 -4 76 -8 90 -11 157 -25 794 -25 1055 1 78 8 386 55 425 65 19 5 51 12
70 15 19 3 73 15 120 26 47 11 94 22 104 24 67 14 254 73 406 128 272 98 642
274 878 417 68 41 131 80 140 85 118 71 457 312 603 429 14 12 43 35 65 51 61
48 385 326 500 430 6 6 35 31 65 56 30 26 70 62 90 80 20 19 54 49 75 68 22
18 75 66 119 106 44 40 103 92 130 116 116 101 163 187 152 282 -26 212 -290
323 -472 197 -22 -15 -51 -38 -65 -51 -14 -13 -73 -67 -130 -118 -58 -52 -107
-98 -110 -101 -5 -5 -345 -296 -385 -329 -386 -315 -626 -489 -1005 -730 -57
-37 -251 -151 -255 -151 -2 0 -36 -19 -77 -43 -95 -56 -504 -257 -523 -257 -2
0 -28 -11 -57 -24 -95 -43 -407 -142 -511 -161 -12 -3 -56 -11 -97 -20 -83
-16 -109 -20 -190 -30 -30 -4 -68 -9 -85 -12 -16 -3 -105 -6 -197 -7 -495 -7
-809 115 -995 386 -138 201 -195 421 -188 733 2 140 26 383 40 405 2 3 6 21 9
40 34 205 198 697 334 1000 11 25 35 79 53 120 67 150 281 570 384 750 58 101
105 188 105 192 0 5 3 8 8 8 4 0 8 -25 9 -56 6 -176 192 -319 428 -330 128 -5
234 37 285 115 17 24 30 55 30 67 0 12 2 28 5 36 9 23 -11 40 -53 43 -54 4
-62 10 -62 45 0 42 47 91 127 133 89 46 140 66 368 144 166 56 209 72 249 92
8 4 4 -38 -9 -96 -3 -13 -7 -33 -10 -45 -2 -13 -11 -54 -19 -93 -17 -79 -52
-284 -61 -360 -3 -27 -8 -68 -11 -90 -8 -60 -12 -109 -20 -230 -32 -486 37
-821 202 -987 77 -79 157 -108 294 -109 257 -3 501 198 674 554 26 54 49 97
51 95 1 -2 5 -21 8 -43 47 -329 245 -562 514 -601 99 -15 253 -7 348 17 275
70 539 318 718 674 39 79 62 131 122 285 52 132 130 441 160 630 35 228 51
572 33 705 -20 147 -85 245 -186 280 -58 19 -176 13 -234 -13 -92 -41 -164
-159 -172 -281 -10 -154 53 -291 134 -291 35 0 90 -19 112 -38 10 -8 27 -40
39 -71 49 -131 21 -394 -73 -675 -107 -319 -236 -553 -393 -711 -148 -149
-266 -205 -413 -196 -50 3 -109 95 -126 196 -43 251 -11 559 98 950 21 72 38
135 40 140 30 109 102 292 131 337 32 48 31 78 0 112 -83 90 -296 97 -455 16
-63 -32 -156 -125 -200 -200 -37 -62 -98 -203 -106 -245 -6 -30 -43 -143 -69
-210 -13 -33 -37 -100 -55 -150 -178 -501 -292 -732 -432 -874 -82 -84 -216
-130 -264 -90 -38 32 -58 118 -58 254 0 67 10 198 18 240 2 11 6 43 10 70 9
67 44 255 61 330 97 421 152 621 261 945 36 107 84 232 106 278 38 78 39 83
24 106 -20 32 -109 75 -177 85 -77 12 -189 6 -251 -14 -29 -10 -75 -34 -103
-54 -27 -21 -58 -40 -67 -44 -10 -3 -18 -12 -18 -19 0 -7 -17 -48 -37 -90 -33
-67 -45 -81 -84 -103 -78 -42 -286 -83 -604 -120 -158 -19 -205 -25 -265 -36
-30 -6 -68 -13 -85 -16 -67 -11 -214 -64 -266 -96 l-57 -34 72 111 c39 61 74
116 79 121 4 6 47 67 95 136 108 157 203 292 211 299 3 3 40 50 81 105 41 55
77 102 81 105 4 3 24 28 44 55 21 28 48 61 61 75 12 14 70 80 129 148 285 327
627 632 835 745 117 64 181 80 295 74 157 -8 228 -43 278 -136 34 -61 39 -80
39 -147 -1 -211 -201 -522 -441 -685 -43 -29 -88 -67 -100 -85 -100 -145 140
-337 535 -429 278 -64 593 -19 727 104 67 61 130 197 176 377 41 163 50 238
46 389 -5 186 -47 359 -127 522 -104 214 -303 403 -539 512 -96 44 -242 94
-320 110 -30 6 -67 13 -84 17 -31 6 -351 15 -357 10z"/>
</g>
</svg>
