<svg width="260" height="260" version="1.1" viewBox="0 0 68.792 68.792" xmlns="http://www.w3.org/2000/svg">
  
 <g fill="#2A9D8F" stroke="#000">
  <g transform="scale(1.0503 .95215)" stroke-width=".52549" aria-label="C">
   <path d="m44.349 0.27297q2.3544 0 4.8111 1.126 2.5591 1.126 4.2993 3.378 1.7402 2.252 2.252 5.7324 0.61418 3.378-1.0236 7.9844-0.51182 1.4331-1.8426 2.0473t-3.0709 0.61418q-1.6378 0-3.2756-0.51182t-2.7638-1.2284q-1.126-0.81891-1.4331-1.6378-0.30709-0.92128 0.81891-1.6378 1.5355-1.0236 2.6615-2.7638 1.2284-1.8426 1.6378-3.5827 0.40946-1.7402-0.40946-2.9686-0.71655-1.3307-3.1733-1.3307-1.8426 0-4.8111 2.6615-2.8662 2.5591-6.2442 6.8584-3.2756 4.2993-6.5513 9.8269t-5.8347 11.26-4.0946 11.26q-1.4331 5.5277-1.0236 9.8269t2.9686 6.9608q2.5591 2.5591 8.0868 2.5591 2.7638 0 6.2442-0.92128t7.6773-3.2756q4.2993-2.3544 9.4175-6.3466 5.1182-4.0946 11.158-10.236 0.81891-0.81891 1.7402-0.81891 1.0236 0 1.8426 0.71655 0.81891 0.81891 0.81891 1.8426t-0.71655 1.8426q-4.504 4.504-8.5986 8.3938-4.0946 3.7875-8.4962 6.756-4.2993 2.8662-9.1104 4.7087-4.8111 1.8426-10.646 2.4567-10.339 0.71655-16.378-1.9449-6.0395-2.7638-8.7009-7.6773-2.6615-4.9135-2.252-11.362 0.30709-6.5513 2.9686-13.41 2.5591-6.8584 6.9608-13.512 4.504-6.6537 10.032-11.874 5.5277-5.3229 11.669-8.4962 6.2442-3.2756 12.386-3.2756z"/>
  </g>
  <g transform="scale(.99426 1.0058)" stroke-width=".52613" aria-label="W">
   <path d="m42.728 43.926q-1.6137 0-2.5819-1.0041-0.9682-1.0041-1.4344-2.6536-0.46617-1.6854-0.53789-3.7652-0.03586-2.1157 0.1793-4.3031 0.21516-2.2233 0.60961-4.339 0.39445-2.1157 0.82477-3.7652-1.0758 0.43031-2.4743 0.89648-1.3985 0.43031-2.6536 0.89648t-2.1157 1.0041q-0.86062 0.50203-0.86062 1.1475 0 0.60961 0.25102 0.71719 0.28688 0.10758 0.86063 0.10758 0 0.82477-0.50203 1.2909-0.50203 0.46617-1.2909 0.64547-0.75305 0.14344-1.6495 0.03586-0.89648-0.14344-1.6854-0.53789-0.75305-0.39445-1.2551-1.0399-0.50203-0.64547-0.50203-1.5061 0-1.4344 0.86063-2.2591 0.89648-0.86063 2.2591-1.3268 1.3985-0.46617 3.0839-0.68133 1.6854-0.21516 3.2991-0.39445 1.6495-0.21516 3.0122-0.50203t2.1157-0.89648l0.35859-0.82477q0.1793-0.32274 0.35859-0.57375v-0.03586q0-0.32274 0-0.28688 0.03586 0 0.07172 0.21516 0.75305-0.93234 1.793-1.1834 1.0758-0.25102 1.9723-0.10758 0.93234 0.10758 1.4702 0.46617 0.57375 0.35859 0.32274 0.60961-0.1793 0.1793-0.60961 1.2192-0.39445 1.0399-0.93234 2.6177-0.50203 1.542-1.0758 3.4784-0.53789 1.9005-1.0041 3.9087-0.46617 1.9723-0.78891 3.8728-0.32274 1.8647-0.39445 3.3349-0.03586 1.4344 0.25102 2.3309 0.28688 0.89649 1.0399 0.89649 1.2909 0 2.3309-1.0399 1.0399-1.0758 1.9364-2.797 0.89648-1.7571 1.7213-3.9804 0.82477-2.2591 1.6854-4.59 0.35859-1.3268 0.78891-2.295 0.43031-0.9682 0.82477-1.4702 1.0399-1.2192 2.1874-1.5778 1.1834-0.35859 2.0798-0.21516 0.93234 0.10758 1.3985 0.53789t0.03586 0.78891q-0.10758 0.10758-0.39445 0.75305-0.25102 0.60961-0.60961 1.5778-0.32273 0.9682-0.68133 2.2233-0.35859 1.2192-0.64547 2.546-0.28688 1.3268-0.46617 2.6536-0.14344 1.3268-0.10758 2.4743 0.07172 2.2591 0.57375 3.1915 0.53789 0.93234 1.3627 0.93234 1.3268 0 2.5102-0.75305 1.1834-0.75305 2.1874-1.9723 1.0041-1.2192 1.793-2.7612 0.78891-1.542 1.3268-3.1198 0.57375-1.5778 0.86063-3.048 0.28688-1.4702 0.28688-2.546 0-1.2192-0.43031-2.044-0.43031-0.82477-1.5778-0.82477-0.35859 0-0.60961-0.39445-0.25102-0.39445-0.39445-0.9682-0.10758-0.60961-0.07172-1.2909 0.07172-0.71719 0.35859-1.2909 0.32273-0.60961 0.89648-1.0041 0.60961-0.39445 1.5778-0.39445 0.93234 0 1.4702 0.46617 0.53789 0.43031 0.78891 1.1116 0.25102 0.68133 0.28688 1.4702 0.07172 0.75305 0.07172 1.3985 0 1.6854-0.28688 3.8728-0.25102 2.1874-0.86062 4.4824-0.57375 2.2591-1.542 4.4824-0.9682 2.1874-2.3309 3.9087-1.3627 1.7213-3.1556 2.797-1.793 1.0399-4.088 1.0399-1.6137 0-2.7612-0.57375-1.1475-0.57375-1.9005-1.5778-0.71719-1.0041-1.1116-2.295-0.35859-1.3268-0.46617-2.797-0.64547 1.5061-1.3627 2.8329-0.71719 1.2909-1.6495 2.295-0.89648 0.9682-2.0081 1.542-1.0758 0.53789-2.4743 0.53789z"/>
  </g>
 </g>
</svg>
